<svg viewBox="0 0 330 200" xmlns="http://www.w3.org/2000/svg"><g><g><g><g><g><line x1="51.5625" y1="177" x2="46.5625" y2="177" style="visibility: inherit;" fill="rgb(0, 0, 0)" stroke="rgb(204, 204, 204)" stroke-width="1px"></line><line x1="51.5625" y1="154.875" x2="46.5625" y2="154.875" style="visibility: inherit;" fill="rgb(0, 0, 0)" stroke="rgb(204, 204, 204)" stroke-width="1px"></line><line x1="51.5625" y1="132.75" x2="46.5625" y2="132.75" style="visibility: inherit;" fill="rgb(0, 0, 0)" stroke="rgb(204, 204, 204)" stroke-width="1px"></line><line x1="51.5625" y1="110.625" x2="46.5625" y2="110.625" style="visibility: inherit;" fill="rgb(0, 0, 0)" stroke="rgb(204, 204, 204)" stroke-width="1px"></line><line x1="51.5625" y1="88.5" x2="46.5625" y2="88.5" style="visibility: inherit;" fill="rgb(0, 0, 0)" stroke="rgb(204, 204, 204)" stroke-width="1px"></line><line x1="51.5625" y1="66.375" x2="46.5625" y2="66.375" style="visibility: inherit;" fill="rgb(0, 0, 0)" stroke="rgb(204, 204, 204)" stroke-width="1px"></line><line x1="51.5625" y1="44.25" x2="46.5625" y2="44.25" style="visibility: inherit;" fill="rgb(0, 0, 0)" stroke="rgb(204, 204, 204)" stroke-width="1px"></line><line x1="51.5625" y1="22.125" x2="46.5625" y2="22.125" style="visibility: inherit;" fill="rgb(0, 0, 0)" stroke="rgb(204, 204, 204)" stroke-width="1px"></line><line x1="51.5625" y1="0" x2="46.5625" y2="0" style="visibility: inherit;" fill="rgb(0, 0, 0)" stroke="rgb(204, 204, 204)" stroke-width="1px"></line></g><g transform="translate(41.5625, 0)"><text x="0" y="177" dx="0em" dy="0.3em" style="text-anchor: end; visibility: hidden; font-family: Roboto, sans-serif; font-size: 12px; font-weight: 200;" fill="rgb(33, 33, 33)" stroke="none" stroke-width="1px">-0.5</text><text x="0" y="154.875" dx="0em" dy="0.3em" style="text-anchor: end; visibility: inherit; font-family: Roboto, sans-serif; font-size: 12px; font-weight: 200;" fill="rgb(33, 33, 33)" stroke="none" stroke-width="1px">0</text><text x="0" y="132.75" dx="0em" dy="0.3em" style="text-anchor: end; visibility: hidden; font-family: Roboto, sans-serif; font-size: 12px; font-weight: 200;" fill="rgb(33, 33, 33)" stroke="none" stroke-width="1px">0.5</text><text x="0" y="110.625" dx="0em" dy="0.3em" style="text-anchor: end; visibility: inherit; font-family: Roboto, sans-serif; font-size: 12px; font-weight: 200;" fill="rgb(33, 33, 33)" stroke="none" stroke-width="1px">1</text><text x="0" y="88.5" dx="0em" dy="0.3em" style="text-anchor: end; visibility: hidden; font-family: Roboto, sans-serif; font-size: 12px; font-weight: 200;" fill="rgb(33, 33, 33)" stroke="none" stroke-width="1px">1.5</text><text x="0" y="66.375" dx="0em" dy="0.3em" style="text-anchor: end; visibility: inherit; font-family: Roboto, sans-serif; font-size: 12px; font-weight: 200;" fill="rgb(33, 33, 33)" stroke="none" stroke-width="1px">2</text><text x="0" y="44.25" dx="0em" dy="0.3em" style="text-anchor: end; visibility: hidden; font-family: Roboto, sans-serif; font-size: 12px; font-weight: 200;" fill="rgb(33, 33, 33)" stroke="none" stroke-width="1px">2.5</text><text x="0" y="22.125" dx="0em" dy="0.3em" style="text-anchor: end; visibility: inherit; font-family: Roboto, sans-serif; font-size: 12px; font-weight: 200;" fill="rgb(33, 33, 33)" stroke="none" stroke-width="1px">3</text><text x="0" y="0" dx="0em" dy="0.3em" style="text-anchor: end; visibility: hidden; font-family: Roboto, sans-serif; font-size: 12px; font-weight: 200;" fill="rgb(33, 33, 33)" stroke="none" stroke-width="1px">3.5</text></g><line x1="51.5625" y1="0" x2="51.5625" y2="177" fill="rgb(0, 0, 0)" stroke="rgb(204, 204, 204)" stroke-width="1px"></line></g></g><g transform="translate(51, 0)" clip-path="url(#clip_0)"><clipPath id="clip_0"><rect width="278" height="177"></rect></clipPath><g><g><g><line x1="0" y1="0" x2="0" y2="177" fill="rgb(0, 0, 0)" stroke="rgb(66, 66, 66)" stroke-width="1px" opacity="0.25"></line><line x1="25.3125" y1="0" x2="25.3125" y2="177" fill="rgb(0, 0, 0)" stroke="rgb(66, 66, 66)" stroke-width="1px" opacity="0.25"></line><line x1="50.625" y1="0" x2="50.625" y2="177" fill="rgb(0, 0, 0)" stroke="rgb(66, 66, 66)" stroke-width="1px" opacity="0.25"></line><line x1="75.9375" y1="0" x2="75.9375" y2="177" fill="rgb(0, 0, 0)" stroke="rgb(66, 66, 66)" stroke-width="1px" opacity="0.25"></line><line x1="101.25" y1="0" x2="101.25" y2="177" fill="rgb(0, 0, 0)" stroke="rgb(66, 66, 66)" stroke-width="1px" opacity="0.25"></line><line x1="126.5625" y1="0" x2="126.5625" y2="177" fill="rgb(0, 0, 0)" stroke="rgb(66, 66, 66)" stroke-width="1px" opacity="0.25"></line><line x1="151.875" y1="0" x2="151.875" y2="177" fill="rgb(0, 0, 0)" stroke="rgb(66, 66, 66)" stroke-width="1px" opacity="0.25"></line><line x1="177.1875" y1="0" x2="177.1875" y2="177" fill="rgb(0, 0, 0)" stroke="rgb(66, 66, 66)" stroke-width="1px" opacity="0.25"></line><line x1="202.5" y1="0" x2="202.5" y2="177" fill="rgb(0, 0, 0)" stroke="rgb(66, 66, 66)" stroke-width="1px" opacity="0.25"></line><line x1="227.8125" y1="0" x2="227.8125" y2="177" fill="rgb(0, 0, 0)" stroke="rgb(66, 66, 66)" stroke-width="1px" opacity="0.25"></line><line x1="253.125" y1="0" x2="253.125" y2="177" fill="rgb(0, 0, 0)" stroke="rgb(66, 66, 66)" stroke-width="1px" opacity="0.25"></line><line x1="278.4375" y1="0" x2="278.4375" y2="177" fill="rgb(0, 0, 0)" stroke="rgb(66, 66, 66)" stroke-width="1px" opacity="0.25"></line></g><g><line x1="0" y1="177" x2="278.4375" y2="177" fill="rgb(0, 0, 0)" stroke="rgb(66, 66, 66)" stroke-width="1px" opacity="0.25"></line><line x1="0" y1="154.875" x2="278.4375" y2="154.875" fill="rgb(0, 0, 0)" stroke="rgb(66, 66, 66)" stroke-width="1px" opacity="0.25"></line><line x1="0" y1="132.75" x2="278.4375" y2="132.75" fill="rgb(0, 0, 0)" stroke="rgb(66, 66, 66)" stroke-width="1px" opacity="0.25"></line><line x1="0" y1="110.625" x2="278.4375" y2="110.625" fill="rgb(0, 0, 0)" stroke="rgb(66, 66, 66)" stroke-width="1px" opacity="0.25"></line><line x1="0" y1="88.5" x2="278.4375" y2="88.5" fill="rgb(0, 0, 0)" stroke="rgb(66, 66, 66)" stroke-width="1px" opacity="0.25"></line><line x1="0" y1="66.375" x2="278.4375" y2="66.375" fill="rgb(0, 0, 0)" stroke="rgb(66, 66, 66)" stroke-width="1px" opacity="0.25"></line><line x1="0" y1="44.25" x2="278.4375" y2="44.25" fill="rgb(0, 0, 0)" stroke="rgb(66, 66, 66)" stroke-width="1px" opacity="0.25"></line><line x1="0" y1="22.125" x2="278.4375" y2="22.125" fill="rgb(0, 0, 0)" stroke="rgb(66, 66, 66)" stroke-width="1px" opacity="0.25"></line><line x1="0" y1="0" x2="278.4375" y2="0" fill="rgb(0, 0, 0)" stroke="rgb(66, 66, 66)" stroke-width="1px" opacity="0.25"></line></g></g></g><g><g><line x1="0" y1="154.875" x2="278.4375" y2="154.875" fill="rgb(0, 0, 0)" stroke="rgb(153, 153, 153)" stroke-width="1.5px"></line></g></g><g><g><line x1="25.3125" y1="0" x2="25.3125" y2="177" fill="rgb(0, 0, 0)" stroke="rgb(153, 153, 153)" stroke-width="1.5px"></line></g></g><g><g><g><g><g><path stroke="rgb(255, 112, 67)" stroke-width="2px" d="M27.198281249999997,-19.021352291107178L27.831093749999997,8.834166526794434L28.463906249999997,7.318993449211121L29.096718749999997,2.492263376712799L29.729531249999997,10.767732381820679L30.36234375,-8.192187130451202L30.99515625,11.0365469455719L31.62796875,1.1553962230682373L32.26078125,11.29522293806076L32.89359375,4.307067632675171L33.52640625,10.225419044494629L34.15921875,7.495822370052338L34.79203125,9.919373452663422L35.424843749999994,9.331452369689941L36.05765625,-6.0893672704696655L36.69046875,9.752134501934052L37.32328125,7.4218772649765015L37.95609375,10.489570498466492L38.58890625,11.803006052970886L39.22171875,10.782439112663269L39.85453125,11.463590741157532L40.48734375,4.4469714760780334L41.12015625,10.042333960533142L41.75296875,-9.53835940361023L42.38578125,16.300058484077454L43.01859375,18.824752628803253L43.65140625,22.886669397354126L44.28421875,22.81552004814148L44.917031249999994,21.122979998588562L45.54984375,18.132101476192474L46.182656249999994,27.140607118606567L46.81546875,23.798581659793854L47.448281249999994,27.34034013748169L48.08109375,32.15327078104019L48.71390625,29.537909746170044L49.34671875,41.063745617866516L49.97953125,43.5704203248024L50.61234375,44.1548810005188L51.24515625,48.29825448989868L51.87796875,52.709598541259766L52.51078125,58.530161798000336L53.14359375,53.857272148132324L53.77640625,59.310747385025024L54.40921875,58.185102224349976L55.04203125,67.10406982898712L55.67484375,69.92366874217987L56.30765625,78.92045858502388L56.940468749999994,88.72989025712013L57.57328125,83.26960498094559L58.206093749999994,89.93686026334763L58.83890625,99.16118243336678L59.47171875,91.98743641376495L60.10453125,97.98266583681107L60.73734375,99.64011651277542L61.37015625,99.44518902897835L62.00296875,105.69587141275406L62.63578125,102.12539577484131L63.26859375,98.37704676389694L63.90140625,100.51962965726852L64.53421875,103.77721273899078L65.16703125000001,109.88188809156418L65.79984375,108.21047973632812L66.43265625000001,113.44832307100296L67.06546875,106.13157677650452L67.69828125,106.13997986912727L68.33109375,109.6388788819313L68.96390625,111.31721068918705L69.59671875,109.4169169664383L70.22953125000001,115.76814633607864L70.86234375000001,116.14069399237633L71.49515625,113.86873617768288L72.12796875,120.53377595543861L72.76078125000001,114.13744787871838L73.39359375000001,115.16456374526024L74.02640625,114.39625047147274L74.65921875,112.85931006073952L75.29203125000001,121.13681522011757L75.92484375000001,115.70610165596008L76.55765625,114.50286108255386L77.19046875,117.81161704659462L77.82328125000001,113.16740763187408L78.45609375000001,118.53073292970657L79.08890625,123.6237824857235L79.72171875,118.9953031539917L80.35453125,119.1709768474102L80.98734375000001,116.77191236615181L81.62015625,121.88350358605385L82.25296875,121.78219436109066L82.88578125,123.17707872390747L83.51859375000001,125.13834366202354L84.15140625000001,120.13355822861195L84.78421875,121.363107919693L85.41703125,120.21475647389889L86.04984375000001,118.65135924518108L86.68265625000001,121.21197357773781L87.31546875,123.48455384373665L87.94828125,127.81289032101631L88.58109375000001,123.4878850132227L89.21390625000001,129.6412988305092L89.84671875,128.86866268515587L90.47953125,119.34345915913582L91.11234375,124.36601610481739L91.74515625000001,128.56853565573692L92.37796875,127.39624884724617L93.01078125,123.36284351348877L93.64359375,130.52267669141293L94.27640625000001,118.3934059292078L94.90921875000001,128.98287458717823L95.54203125,126.80646304786205L96.17484375,124.45514269173145L96.80765625000001,129.20213305950165L97.44046875000001,126.37493285536766L98.07328125,133.61201857030392L98.70609375,124.55782869458199L99.33890625000001,123.89350435137749L99.97171875000001,125.20019052922726L100.60453125,128.55540615320206L101.23734375,130.41382683813572L101.87015625000001,131.63828086853027L102.50296875000001,134.69700922071934L103.13578125,128.40226466953754L103.76859375,131.388414144516L104.40140625,132.69258150458336L105.03421875000001,128.6388462781906L105.66703125000001,129.81275779008865L106.29984375,132.60354459285736L106.93265625,131.16209506988525L107.56546875000001,132.44907116889954L108.19828125000001,130.81729924678802L108.83109375,133.97196158766747L109.46390625,128.51746827363968L110.09671875000001,125.73782756924629L110.72953125000001,137.10204633325338L111.36234375,134.6086501479149L111.99515625,135.7105129212141L112.62796875000001,133.45320908725262L113.26078125000001,133.11361706256866L113.89359375,134.9564184397459L114.52640625,137.45460169762373L115.15921875,137.57055830955505L115.79203125000001,137.08604590594769L116.42484375,137.58025509864092L117.05765625,134.77792789041996L117.69046875,138.5372093617916L118.32328125000001,133.10442403703928L118.95609375000001,130.72656378149986L119.58890625,135.47436386346817L120.22171875,130.39316725730896L120.85453125000001,133.11276778578758L121.48734375000001,138.34319972991943L122.12015625,135.66922540962696L122.75296875,138.6703809723258L123.38578125000001,140.29166089743376L124.01859375000001,135.56627301871777L124.65140625,139.5779321193695L125.28421875,138.67755630612373L125.91703125,133.55120033025742L126.54984375000001,138.33611802756786L127.18265625,139.83574960380793L127.81546875,139.168799623847L128.44828124999998,141.49882739782333L129.08109375,139.84264799952507L129.71390625,140.4494668096304L130.34671875,137.38778445124626L130.97953125,142.19187681376934L131.61234375,142.47347141057253L132.24515625,139.73471599817276L132.87796875,136.42197212576866L133.51078125,141.2140242755413L134.14359375,137.68261405080557L134.77640625,141.27932099997997L135.40921875,139.17169032990932L136.04203125,138.77164667844772L136.67484375,139.99643303453922L137.30765625,138.21189679205418L137.94046875,136.25620490312576L138.57328125,141.27092845737934L139.20609374999998,139.03318040817976L139.83890625,143.03662763535976L140.47171874999998,141.64546743035316L141.10453125,136.54110693186522L141.73734375,141.66000667959452L142.37015624999998,143.04534195363522L143.00296875,142.51538532972336L143.63578125,142.26080538332462L144.26859375,143.14303515851498L144.90140625,141.74452950060368L145.53421874999998,143.47441399097443L146.16703125,141.81208392977715L146.79984375,143.71121319383383L147.43265624999998,143.44876688718796L148.06546875,144.72234577685595L148.69828125,143.22416746616364L149.33109375,142.7853432521224L149.96390625,140.63397746533155L150.59671874999998,143.80575062334538L151.22953125,144.6275353655219L151.86234375,143.82492265105247L152.49515624999998,146.38867693394423L153.12796875,144.91682158783078L153.76078124999998,145.00802982598543L154.39359375,143.1436523348093L155.02640625,146.8166135251522L155.65921874999998,144.52224218845367L156.29203125,147.03595837578177L156.92484375,144.38175347819924L157.55765625,146.84925067797303L158.19046875,142.9201844036579L158.82328124999998,147.5386926457286L159.45609375,146.55811028927565L160.08890625,146.91171142458916L160.72171874999998,145.8627781122923L161.35453125,146.5551055110991L161.98734374999998,143.8681230135262L162.62015625,144.56753079593182L163.25296875,146.3308351188898L163.88578124999998,146.60100140422583L164.51859375,145.08045902475715L165.15140625,148.3654741421342L165.78421875,147.6965684518218L166.41703125,147.33139723911881L167.04984374999998,145.9180707782507L167.68265625,143.90976856648922L168.31546875,147.9042970687151L168.94828124999998,146.315929915756L169.58109375,147.82576402276754L170.21390625,146.37569842860103L170.84671875,144.38538598269224L171.47953125,147.87201070412993L172.11234374999998,149.05934711918235L172.74515625,148.72711835056543L173.37796875,148.45633225142956L174.01078124999998,148.29081163555384L174.64359375,146.63022958114743L175.27640624999998,148.71936474367976L175.90921875,149.24028988927603L176.54203125,147.36139688640833L177.17484374999998,147.27382708713412L177.80765625,146.44561540335417L178.44046875,148.55357971787453L179.07328125,148.1141337119043L179.70609375,147.6239236369729L180.33890624999998,148.92302303016186L180.97171875,145.31479018181562L181.60453125,147.2133787572384L182.23734374999998,144.39113706350327L182.87015625,149.0506822541356L183.50296875,147.45636950433254L184.13578125,149.82979017868638L184.76859375,147.9857458770275L185.40140624999998,146.6356489956379L186.03421875,150.37512411922216L186.66703125,147.9200937487185L187.29984374999998,149.5290459729731L187.93265625,150.28184609860182L188.56546874999998,149.71440326794982L189.19828125,149.4596307836473L189.83109375,148.74904789030552L190.46390624999998,149.6378236245364L191.09671875,150.13802687823772L191.72953125,148.98938530683517L192.36234375,148.08839297667146L192.99515625,149.27264680713415L193.62796874999998,149.11161456629634L194.26078125,149.49413397163153L194.89359375,149.38205449283123L195.52640624999998,151.29850623384118L196.15921875,148.17844796553254L196.79203124999998,150.0081554464996L197.42484375,149.7495078071952L198.05765625,147.6437833942473L198.69046874999998,147.27470207959414L199.32328125,149.75747406296432L199.95609375,150.1932166814804L200.58890625,148.75894117355347L201.22171875,150.38748973421752L201.85453124999998,151.18783419393003L202.48734375,149.40965499915183L203.12015625,148.97162698209286L203.75296874999998,150.74551693350077L204.38578125,150.82892903499305L205.01859375,148.74366276338696L205.65140625,149.3583103492856L206.28421875,149.55609820783138L206.91703124999998,151.05898875184357L207.54984375,150.58437457680702L208.18265625,150.79647222161293L208.81546874999998,149.81748588569462L209.44828125,150.50827792659402L210.08109374999998,147.92683389410377L210.71390625,145.31207421049476L211.34671875,151.8946428168565L211.97953124999998,150.63384198211133L212.61234375,150.67973194085062L213.24515625,148.85446107387543L213.87796875,151.01236655563116L214.51078125,151.2973655126989L215.14359374999998,151.62743746116757L215.77640625,149.24197591468692L216.40921875,150.18907118216157L217.04203124999998,149.16619312763214L217.67484375,149.2461121827364L218.30765625,149.93600384518504L218.94046875,151.3322148732841L219.57328125,149.3457156009972L220.20609374999998,151.2821286432445L220.83890625,152.8845731522888L221.47171875,152.0990076251328L222.10453124999998,150.7816441655159L222.73734375,150.5968737155199L223.37015624999998,150.87164970114827L224.00296875,150.69020910188556L224.63578125,151.34041092172265L225.26859374999998,151.1479211524129L225.90140625,148.550597358495L226.53421875,151.96632659062743L227.16703125,150.5077372379601L227.79984375,150.7872880976647L228.43265624999998,150.6650651022792L229.06546875,151.2664315290749L229.69828125,150.64334392547607L230.33109374999998,150.95852220989764L230.96390625,150.90704568475485L231.59671874999998,149.64158174023032L232.22953125,150.49211232550442L232.86234375,149.1930007338524L233.49515624999998,151.62663467042148L234.12796875,148.504911147058L234.76078125,149.74059270881116L235.39359375,150.50829902663827L236.02640625,152.14448102284223L236.65921874999998,149.5227838754654L237.29203125,150.6952757500112L237.92484375,149.45255600474775L238.55765624999998,151.08469783701003L239.19046875,152.06440651975572L239.82328125,151.69870088249445L240.45609375,151.40948092751205L241.08890625,149.2002307958901L241.72171874999998,150.36051893234253L242.35453125,151.13584797084332L242.98734375,150.2124315686524L243.62015624999998,150.2597873210907L244.25296875,150.03661643899977L244.88578124999998,151.8535610307008L245.51859375,150.561935339123L246.15140625,151.7363403942436L246.78421874999998,150.22631276026368L247.41703125,150.45320747047663L248.04984375,150.03870699182153L248.68265625,150.73963463678956L249.31546875,149.5443019643426L249.94828124999998,150.48211189359426L250.58109375,149.20973504707217L251.21390625,150.67087882384658L251.84671874999998,150.92763833887875L252.47953125,150.0669072009623L253.11234375,150.2412529103458" style="fill: none;" fill="none"></path></g></g></g></g></g></g><g transform="translate(51, 177)" clip-path="url(#clip_1)"><clipPath id="clip_1"><rect width="278" height="23"></rect></clipPath><g><g><line x1="0" y1="0" x2="0" y2="5" style="visibility: inherit;" fill="rgb(0, 0, 0)" stroke="rgb(204, 204, 204)" stroke-width="1px"></line><line x1="25.3125" y1="0" x2="25.3125" y2="5" style="visibility: inherit;" fill="rgb(0, 0, 0)" stroke="rgb(204, 204, 204)" stroke-width="1px"></line><line x1="50.625" y1="0" x2="50.625" y2="5" style="visibility: inherit;" fill="rgb(0, 0, 0)" stroke="rgb(204, 204, 204)" stroke-width="1px"></line><line x1="75.9375" y1="0" x2="75.9375" y2="5" style="visibility: inherit;" fill="rgb(0, 0, 0)" stroke="rgb(204, 204, 204)" stroke-width="1px"></line><line x1="101.25" y1="0" x2="101.25" y2="5" style="visibility: inherit;" fill="rgb(0, 0, 0)" stroke="rgb(204, 204, 204)" stroke-width="1px"></line><line x1="126.5625" y1="0" x2="126.5625" y2="5" style="visibility: inherit;" fill="rgb(0, 0, 0)" stroke="rgb(204, 204, 204)" stroke-width="1px"></line><line x1="151.875" y1="0" x2="151.875" y2="5" style="visibility: inherit;" fill="rgb(0, 0, 0)" stroke="rgb(204, 204, 204)" stroke-width="1px"></line><line x1="177.1875" y1="0" x2="177.1875" y2="5" style="visibility: inherit;" fill="rgb(0, 0, 0)" stroke="rgb(204, 204, 204)" stroke-width="1px"></line><line x1="202.5" y1="0" x2="202.5" y2="5" style="visibility: inherit;" fill="rgb(0, 0, 0)" stroke="rgb(204, 204, 204)" stroke-width="1px"></line><line x1="227.8125" y1="0" x2="227.8125" y2="5" style="visibility: inherit;" fill="rgb(0, 0, 0)" stroke="rgb(204, 204, 204)" stroke-width="1px"></line><line x1="253.125" y1="0" x2="253.125" y2="5" style="visibility: inherit;" fill="rgb(0, 0, 0)" stroke="rgb(204, 204, 204)" stroke-width="1px"></line><line x1="278.4375" y1="0" x2="278.4375" y2="5" style="visibility: inherit;" fill="rgb(0, 0, 0)" stroke="rgb(204, 204, 204)" stroke-width="1px"></line></g><g transform="translate(0, 8)"><text x="0" y="0" dx="0em" dy="0.95em" style="text-anchor: middle; visibility: hidden; font-family: Roboto, sans-serif; font-size: 12px; font-weight: 200;" fill="rgb(33, 33, 33)" stroke="none" stroke-width="1px">-2k</text><text x="25.3125" y="0" dx="0em" dy="0.95em" style="text-anchor: middle; visibility: inherit; font-family: Roboto, sans-serif; font-size: 12px; font-weight: 200;" fill="rgb(33, 33, 33)" stroke="none" stroke-width="1px">0</text><text x="50.625" y="0" dx="0em" dy="0.95em" style="text-anchor: middle; visibility: inherit; font-family: Roboto, sans-serif; font-size: 12px; font-weight: 200;" fill="rgb(33, 33, 33)" stroke="none" stroke-width="1px">2k</text><text x="75.9375" y="0" dx="0em" dy="0.95em" style="text-anchor: middle; visibility: inherit; font-family: Roboto, sans-serif; font-size: 12px; font-weight: 200;" fill="rgb(33, 33, 33)" stroke="none" stroke-width="1px">4k</text><text x="101.25" y="0" dx="0em" dy="0.95em" style="text-anchor: middle; visibility: inherit; font-family: Roboto, sans-serif; font-size: 12px; font-weight: 200;" fill="rgb(33, 33, 33)" stroke="none" stroke-width="1px">6k</text><text x="126.5625" y="0" dx="0em" dy="0.95em" style="text-anchor: middle; visibility: inherit; font-family: Roboto, sans-serif; font-size: 12px; font-weight: 200;" fill="rgb(33, 33, 33)" stroke="none" stroke-width="1px">8k</text><text x="151.875" y="0" dx="0em" dy="0.95em" style="text-anchor: middle; visibility: inherit; font-family: Roboto, sans-serif; font-size: 12px; font-weight: 200;" fill="rgb(33, 33, 33)" stroke="none" stroke-width="1px">10k</text><text x="177.1875" y="0" dx="0em" dy="0.95em" style="text-anchor: middle; visibility: inherit; font-family: Roboto, sans-serif; font-size: 12px; font-weight: 200;" fill="rgb(33, 33, 33)" stroke="none" stroke-width="1px">12k</text><text x="202.5" y="0" dx="0em" dy="0.95em" style="text-anchor: middle; visibility: inherit; font-family: Roboto, sans-serif; font-size: 12px; font-weight: 200;" fill="rgb(33, 33, 33)" stroke="none" stroke-width="1px">14k</text><text x="227.8125" y="0" dx="0em" dy="0.95em" style="text-anchor: middle; visibility: inherit; font-family: Roboto, sans-serif; font-size: 12px; font-weight: 200;" fill="rgb(33, 33, 33)" stroke="none" stroke-width="1px">16k</text><text x="253.125" y="0" dx="0em" dy="0.95em" style="text-anchor: middle; visibility: inherit; font-family: Roboto, sans-serif; font-size: 12px; font-weight: 200;" fill="rgb(33, 33, 33)" stroke="none" stroke-width="1px">18k</text><text x="278.4375" y="0" dx="0em" dy="0.95em" style="text-anchor: middle; visibility: hidden; font-family: Roboto, sans-serif; font-size: 12px; font-weight: 200;" fill="rgb(33, 33, 33)" stroke="none" stroke-width="1px">20k</text></g><line x1="0" y1="0" x2="278.4375" y2="0" fill="rgb(0, 0, 0)" stroke="rgb(204, 204, 204)" stroke-width="1px"></line></g></g></g></g></svg>